<svg xmlns="http://www.w3.org/2000/svg" xmlns:xlink="http://www.w3.org/1999/xlink" version="1.1" x="0px" y="0px" viewBox="0 0 32 40" enable-background="new 0 0 32 32" xml:space="preserve" style="fill: #FFCB33;"><g><path d="M18.522,16.882C20.289,15.966,21.5,14.123,21.5,12c0-3.032-2.467-5.5-5.5-5.5s-5.5,2.468-5.5,5.5   c0,2.123,1.211,3.966,2.978,4.882C10.019,17.959,7.5,21.191,7.5,25v0.5h17V25C24.5,21.191,21.981,17.959,18.522,16.882z M11.5,12   c0-2.481,2.019-4.5,4.5-4.5s4.5,2.019,4.5,4.5s-2.019,4.5-4.5,4.5S11.5,14.481,11.5,12z M8.517,24.5c0.258-3.903,3.516-7,7.483-7   s7.225,3.097,7.483,7H8.517z"/></g><text x="0" y="47" fill="#000000" font-size="5px" font-weight="bold" font-family="'Helvetica Neue', Helvetica, Arial-Unicode, Arial, Sans-serif">Created by Ralf Schmitzer</text><text x="0" y="52" fill="#000000" font-size="5px" font-weight="bold" font-family="'Helvetica Neue', Helvetica, Arial-Unicode, Arial, Sans-serif">from the Noun Project</text></svg>
